<svg class="svg-sprite" style="display: none">
  <style type="text/css">
    * {
    pointer-events: fill;
    }
  </style>
  <defs>
    <symbol id="icon-menu" viewBox="0 0 24 24">
      <path d="M22.38 0H1.58A1.57 1.57 0 0 0 0 1.58a1.57 1.57 0 0 0 1.58 1.59h20.84A1.57 1.57 0 0 0 24 1.58 1.62 1.62 0 0 0 22.38 0zm0 20.83H1.58a1.59 1.59 0 0 0 0 3.17h20.84A1.57 1.57 0 0 0 24 22.42a1.63 1.63 0 0 0-1.62-1.59zm0-10.43H1.58a1.59 1.59 0 0 0 0 3.17h20.84A1.57 1.57 0 0 0 24 12a1.62 1.62 0 0 0-1.62-1.6z" />
    </symbol>

    <symbol id="icon-search" viewBox="0 0 24 24">
      <path d="M8.91 0a8.9 8.9 0 0 1 8.92 8.91 8.52 8.52 0 0 1-2.2 5.76l.42.42h1.09L24 21.94 21.94 24l-6.85-6.86v-1.09l-.42-.42a8.52 8.52 0 0 1-5.76 2.2A8.92 8.92 0 0 1 8.91 0zm0 2.74a6.18 6.18 0 1 0 6.18 6.17 6.15 6.15 0 0 0-6.18-6.17z" />
    </symbol>

    <symbol id="icon-refine" viewBox="0 0 24 24">
      <path d="M15 4.8c0-.4 0-.8.1-1.2H0V6h15.1c-.1-.4-.1-.8-.1-1.2zM20.4 8.4c2 0 3.6-1.6 3.6-3.6s-1.6-3.6-3.6-3.6-3.6 1.6-3.6 3.6 1.6 3.6 3.6 3.6zM3 12c0-.4 0-.8.1-1.2H0v2.4h3.1C3 12.8 3 12.4 3 12zM13.7 10.8c.1.4.1.8.1 1.2s0 .8-.1 1.2H24v-2.4H13.7zM8.4 15.6c2 0 3.6-1.6 3.6-3.6s-1.6-3.6-3.6-3.6S4.8 10 4.8 12s1.6 3.6 3.6 3.6z" />
      <path d="M15 19.2c0-.4 0-.8.1-1.2H0v2.4h15.1c-.1-.4-.1-.8-.1-1.2zM20.4 22.8c2 0 3.6-1.6 3.6-3.6s-1.6-3.6-3.6-3.6-3.6 1.6-3.6 3.6 1.6 3.6 3.6 3.6z" />
    </symbol>

    <symbol id="icon-close" viewBox="0 0 24 24">
      <path d="M24.5 2.9L22.1.5l-9.6 9.6L2.9.5.5 2.9l9.6 9.6-9.6 9.6 2.4 2.4 9.6-9.6 9.6 9.6 2.4-2.4-9.6-9.6 9.6-9.6z" />
    </symbol>

    <symbol id="icon-play" viewBox="0 0 24 24">
      <path d="M2.4 0v24l19.2-11.9L2.4 0z" />
    </symbol>

    <symbol id="icon-chevron" viewBox="0 0 24 24">
      <path d="M5.4 3.8l2.5-2.5L18.6 12 7.9 22.7l-2.5-2.5 8.2-8.2-8.2-8.2z" />
    </symbol>

    <symbol id="icon-chevron-double" viewBox="0 0 24 24">
      <path d="M0 3.8l2.5-2.5L13.3 12 2.5 22.7 0 20.2 8.2 12 0 3.8zm10.7 0l2.5-2.5L24 12 13.3 22.7l-2.5-2.5L19 12l-8.3-8.2z" />
    </symbol>

    <symbol id="icon-checkbox-unselected" viewBox="0 0 24 24">
      <path  d="M21.2 24H2.8C1.3 24 0 22.7 0 21.2V2.8C0 1.3 1.3 0 2.8 0h18.4C22.7 0 24 1.3 24 2.8v18.4c0 1.5-1.3 2.8-2.8 2.8zM2.8 1C1.8 1 1 1.8 1 2.8v18.4c0 1 .8 1.8 1.8 1.8h18.4c1 0 1.8-.8 1.8-1.8V2.8c0-1-.8-1.8-1.8-1.8H2.8z" />
    </symbol>

    <symbol id="icon-checkbox-selected" viewBox="0 0 24 24">
      <path fill="#0071aa" d="M21 0H3C1.3 0 0 1.3 0 3v18c0 1.7 1.3 3 3 3h18c1.7 0 3-1.3 3-3V3c0-1.7-1.3-3-3-3z" />
      <path fill="#fff" d="M8.6 19.5l-5.6-6 2-2.1 3.5 3.7L18.9 3 21 5 8.6 19.5z" />
    </symbol>

    <symbol id="icon-facebook" viewBox="0 0 24 24">
      <path d="M5 3h14c1.1 0 2 .9 2 2v14c0 1.1-.9 2-2 2H5c-1.1 0-2-.9-2-2V5c0-1.1.9-2 2-2zm13 2h-2.5C13.6 5 12 6.6 12 8.5V11h-2v3h2v7h3v-7h3v-3h-3V9c0-.6.4-1 1-1h2V5z" />
    </symbol>

    <symbol id="icon-instagram" viewBox="0 0 24 24">
      <path d="M8.22 3h7.56C18.66 3 21 5.34 21 8.22v7.56c0 2.88-2.34 5.22-5.22 5.22H8.22C5.34 21 3 18.66 3 15.78V8.22C3 5.34 5.34 3 8.22 3zm-.18 1.8c-1.8 0-3.24 1.44-3.24 3.24v7.92c0 1.8 1.44 3.24 3.24 3.24h7.92c1.8 0 3.24-1.44 3.24-3.24V8.04c0-1.8-1.44-3.24-3.24-3.24H8.04zm8.73 1.35c.63 0 1.17.54 1.17 1.17 0 .63-.63 1.08-1.17 1.08-.54 0-1.17-.54-1.17-1.08s.54-1.17 1.17-1.17zM12 7.5c2.52 0 4.5 1.98 4.5 4.5s-1.98 4.5-4.5 4.5-4.5-1.98-4.5-4.5S9.48 7.5 12 7.5zm0 1.8c-1.53 0-2.7 1.17-2.7 2.7 0 1.53 1.17 2.7 2.7 2.7 1.53 0 2.7-1.17 2.7-2.7 0-1.53-1.17-2.7-2.7-2.7z" />
    </symbol>

    <symbol id="icon-twitter" viewBox="0 0 24 24">
      <path d="M5 3h14c1.1 0 2 .9 2 2v14c0 1.1-.9 2-2 2H5c-1.1 0-2-.9-2-2V5c0-1.1.9-2 2-2zm12.7 6.3c.5-.4 1-.9 1.3-1.4-.4.2-.9.3-1.4.4.5-.4.9-.8 1.1-1.5-.5.3-1.1.5-1.7.6-1.5-1.9-5.3-.3-4.6 2.4-2.6 0-4.2-1.2-5.6-2.6-.7 1.2 0 3 .8 3.5-.5 0-.8-.2-1.1-.3 0 1.5.9 2.3 2.1 2.7-.4.1-.8.1-1.1 0 .4 1.1 1.1 1.7 2.5 1.9-1 .8-2.7 1.3-4 1.1 1.2.7 2.5 1.3 4.3 1.2 4.4-.2 7.3-3.4 7.4-8z" />
    </symbol>

    <symbol id="icon-youtube" viewBox="0 0 24 24">
      <path d="M10 16.5v-9l6 4.5-6 4.5zM20 4.4c-.6-.2-4.3-.4-8-.4s-7.4.2-8 .4c-1.6.5-2 4-2 7.6 0 3.6.4 7.1 2 7.6.6.2 4.3.4 8 .4s7.4-.2 8-.4c1.6-.5 2-4 2-7.6 0-3.6-.4-7.1-2-7.6z" />
    </symbol>

    <symbol id="icon-linkedin" viewBox="0 0 31 32">
      <path d="M4.761 26.706v-14.094h4.641v14.094h-4.641zM9.703 8.267c0 1.34-1.004 2.437-2.632 2.437h-0.020c-1.567 0-2.571-1.097-2.571-2.437 0-1.381 1.045-2.437 2.632-2.437s2.571 1.056 2.592 2.437zM21.455 26.706v-7.534c0-1.909-0.663-3.188-2.33-3.188-1.286 0-2.049 0.873-2.391 1.706-0.121 0.305-0.141 0.731-0.141 1.137v7.88h-4.641c0.060-12.774 0-14.094 0-14.094h4.641v2.051h-0.040c0.603-0.975 1.708-2.376 4.199-2.376 3.054 0 5.344 2.010 5.344 6.336v8.083h-4.641zM30.857 6.439c0-3.229-2.592-5.849-5.786-5.849h-19.286c-3.194 0-5.786 2.62-5.786 5.849v19.496c0 3.229 2.592 5.849 5.786 5.849h19.286c3.194 0 5.786-2.62 5.786-5.849v-19.496z"></path>
    </symbol>

    <symbol id="icon-download" viewBox="0 0 24 24">
      <path d="M16.7 15.6c-.5 2-2.4 3.6-4.7 3.6s-4.1-1.6-4.7-3.6H0V24h24v-8.4h-7.3zM16 7.6l-2.8 2.8V0h-2.4v10.3L8 7.6 6.4 9.2l5.6 5.6 5.6-5.6L16 7.6z" />
    </symbol>

    <symbol id="icon-list-view" viewBox="0 0 24 24">
      <path d="M8.4 0h-6C1.1 0 0 1.1 0 2.4v6c0 1.3 1.1 2.4 2.4 2.4h6c1.3 0 2.4-1.1 2.4-2.4v-6C10.8 1.1 9.7 0 8.4 0zM24 2.4H12v2.4h12V2.4zM24 6H12v2.4h12V6z"/>
      <path d="M8.4 13.2h-6c-1.3 0-2.4 1.1-2.4 2.4v6C0 22.9 1.1 24 2.4 24h6c1.3 0 2.4-1.1 2.4-2.4v-6c0-1.3-1.1-2.4-2.4-2.4zM24 15.6H12V18h12v-2.4zM24 19.2H12v2.4h12v-2.4z"/>
    </symbol>

    <symbol id="icon-grid-view" viewBox="0 0 24 24">
      <path d="M8.4 0h-6C1.1 0 0 1.1 0 2.4v6c0 1.3 1.1 2.4 2.4 2.4h6c1.3 0 2.4-1.1 2.4-2.4v-6C10.8 1.1 9.7 0 8.4 0zM21.6 0h-6c-1.3 0-2.4 1.1-2.4 2.4v6c0 1.3 1.1 2.4 2.4 2.4h6c1.3 0 2.4-1.1 2.4-2.4v-6C24 1.1 22.9 0 21.6 0zM8.4 13.2h-6c-1.3 0-2.4 1.1-2.4 2.4v6C0 22.9 1.1 24 2.4 24h6c1.3 0 2.4-1.1 2.4-2.4v-6c0-1.3-1.1-2.4-2.4-2.4zM21.6 13.2h-6c-1.3 0-2.4 1.1-2.4 2.4v6c0 1.3 1.1 2.4 2.4 2.4h6c1.3 0 2.4-1.1 2.4-2.4v-6c0-1.3-1.1-2.4-2.4-2.4z"/>
    </symbol>

    <symbol id="icon-member" viewBox="0 0 24 24">
      <path d="M12 12.1c-3.3 0-6-2.7-6-6.1 0-3.3 2.7-6 6-6s6 2.7 6 6.1c0 3.3-2.7 6-6 6zM12 3c-1.6 0-3 1.4-3 3s1.4 3 3 3 3-1.4 3-3-1.4-3-3-3zM24 24H0v-1.5c0-5.3 4.9-9.1 12-9.1s12 3.8 12 9.1V24zM3.3 21h17.5c-.9-2.7-4.2-4.6-8.7-4.6S4.2 18.2 3.3 21z" />
    </symbol>

    <symbol id="icon-external-link" viewBox="0 0 24 24">
      <path d="M24 2.3v5.3c0 .3-.1.5-.3.7-.2.2-.4.3-.7.3s-.5-.1-.7-.3l-1.5-1.5L10.7 17c-.2.2-.4.3-.7.3-.3 0-.5-.1-.7-.3l-1-1c-.2-.1-.3-.3-.3-.6s.1-.5.3-.7L18.5 4.5 17 3c-.2-.2-.3-.4-.3-.7s.1-.5.3-.7c.2-.2.4-.3.7-.3H23c.3 0 .5.1.7.3.2.2.3.5.3.7zm-7 10.3l-.7.7c-.2.2-.3.4-.3.7v6H2.7V6.7h11c.3 0 .5-.1.7-.3l.6-.7c.2-.2.3-.4.3-.7 0-.3-.1-.5-.3-.7-.2-.2-.4-.3-.7-.3H2c-.6 0-1 .2-1.4.6C.2 5 0 5.4 0 6v14.7c0 .6.2 1 .6 1.4.4.4.8.6 1.4.6h14.7c.6 0 1-.2 1.4-.6.4-.4.6-.9.6-1.4v-7.3c0-.3-.1-.5-.3-.7-.2-.2-.4-.3-.7-.3-.3-.1-.5 0-.7.2z" />
    </symbol>

    <symbol id="icon-lock" viewBox="0 0 24 24">
      <path d="M18 10.8V6c0-3.3-2.7-6-6-6S6 2.7 6 6v4.8c-1.3 0-2.4 1.1-2.4 2.4v8.4C3.6 22.9 4.7 24 6 24h12c1.3 0 2.4-1.1 2.4-2.4v-8.4c0-1.3-1.1-2.4-2.4-2.4zm-6 8.4c-1 0-1.8-.8-1.8-1.8s.8-1.8 1.8-1.8 1.8.8 1.8 1.8-.8 1.8-1.8 1.8zm3.6-8.4H8.4V6c0-2 1.6-3.6 3.6-3.6S15.6 4 15.6 6v4.8z" />
    </symbol>

  </defs>
</svg>
